<svg width="269.36" height="56.49" viewBox="0 0 269.36 56.49" xmlns="http://www.w3.org/2000/svg"><g id="svgGroup" stroke-linecap="round" fill-rule="evenodd" font-size="9pt" stroke="#b8a018" stroke-width="0.3mm" fill="none" style="stroke:#b8a018;stroke-width:0.3mm;fill:none"><path d="M 40.73 53.251 A 12.355 12.355 0 0 0 43.19 53.48 A 14.242 14.242 0 0 0 45.565 53.281 Q 47.821 52.9 50.032 51.792 A 18.344 18.344 0 0 0 50.085 51.765 A 20.815 20.815 0 0 0 52.562 50.287 A 24.304 24.304 0 0 0 56.385 46.97 A 24.178 24.178 0 0 0 57.27 45.978 A 13.054 13.054 0 0 0 57.12 47.88 A 10.09 10.09 0 0 0 57.163 48.832 Q 57.245 49.699 57.485 50.41 A 4.469 4.469 0 0 0 58.625 52.255 Q 60.13 53.69 62.3 53.69 Q 64.89 53.69 67.375 51.66 Q 69.084 50.264 71.04 47.909 A 53.897 53.897 0 0 0 72.87 45.57 Q 72.8 46.13 72.73 46.655 Q 72.694 46.926 72.677 47.169 A 6.022 6.022 0 0 0 72.66 47.6 Q 72.66 49.42 73.885 50.96 A 3.675 3.675 0 0 0 74.69 51.71 Q 75.354 52.164 76.249 52.357 A 6.885 6.885 0 0 0 77.7 52.5 A 8.65 8.65 0 0 0 80.649 51.962 A 11.998 11.998 0 0 0 82.845 50.89 Q 85.47 49.28 87.78 46.41 A 22.783 22.783 0 0 0 89.129 44.547 A 17.815 17.815 0 0 0 89.11 45.36 A 15.757 15.757 0 0 0 89.176 46.834 Q 89.495 50.225 91.35 52.08 Q 93.59 54.32 96.95 54.32 Q 100.38 54.32 103.74 52.43 A 20.379 20.379 0 0 0 106.378 50.658 A 24.32 24.32 0 0 0 109.9 47.215 A 26.073 26.073 0 0 0 111.095 45.678 A 10.591 10.591 0 0 0 111.106 45.942 A 8.137 8.137 0 0 0 113.225 51.135 A 6.346 6.346 0 0 0 114.643 52.298 Q 115.738 52.96 117.17 53.251 A 12.355 12.355 0 0 0 119.63 53.48 A 14.242 14.242 0 0 0 122.005 53.281 Q 124.261 52.9 126.472 51.792 A 18.344 18.344 0 0 0 126.525 51.765 A 20.815 20.815 0 0 0 129.002 50.287 A 24.304 24.304 0 0 0 132.825 46.97 A 24.178 24.178 0 0 0 134.379 45.149 A 27.089 27.089 0 0 0 137.62 39.69 L 136.78 39.06 Q 135.03 42.42 132.51 45.22 A 25.99 25.99 0 0 1 131.224 46.552 A 21.988 21.988 0 0 1 127.05 49.735 A 14.042 14.042 0 0 1 125.576 50.485 A 11.133 11.133 0 0 1 121.1 51.45 Q 119.49 51.45 118.405 50.96 A 4.971 4.971 0 0 1 118.014 50.763 A 4.051 4.051 0 0 1 116.69 49.595 Q 116.06 48.72 115.815 47.67 Q 115.57 46.62 115.57 45.57 Q 115.57 45.01 115.64 44.38 Q 115.71 43.75 115.85 43.05 A 21.335 21.335 0 0 0 117.074 42.9 A 23.578 23.578 0 0 0 121.905 41.615 Q 124.95 40.46 127.505 38.64 A 18.666 18.666 0 0 0 128.721 37.697 A 15.618 15.618 0 0 0 131.635 34.475 A 10.627 10.627 0 0 0 131.756 34.291 A 8.772 8.772 0 0 0 133.21 29.47 Q 133.21 28.094 132.825 27.212 A 2.504 2.504 0 0 0 131.845 26.04 Q 130.48 25.2 128.87 25.2 A 10.581 10.581 0 0 0 125.383 25.809 A 14.206 14.206 0 0 0 122.64 27.125 A 22.178 22.178 0 0 0 120.723 28.441 A 25.228 25.228 0 0 0 116.865 32.13 A 30.032 30.032 0 0 0 116.845 32.154 A 27.547 27.547 0 0 0 112.665 38.71 A 19.427 19.427 0 0 0 111.588 41.706 A 14.258 14.258 0 0 0 111.251 43.309 A 22.149 22.149 0 0 1 109.48 45.71 A 22.069 22.069 0 0 1 107.588 47.676 A 17.222 17.222 0 0 1 104.195 50.12 Q 101.36 51.66 98.56 51.66 A 8.616 8.616 0 0 1 97.714 51.62 Q 95.395 51.391 94.5 49.84 Q 93.45 48.02 93.45 45.85 Q 93.45 43.26 94.535 40.32 Q 95.62 37.38 97.335 34.72 A 22.668 22.668 0 0 1 98.947 32.511 A 16.874 16.874 0 0 1 101.045 30.38 A 10.068 10.068 0 0 1 101.667 29.895 Q 103.336 28.7 104.93 28.7 A 3.546 3.546 0 0 1 104.978 28.7 Q 105.848 28.712 106.155 29.155 A 1.502 1.502 0 0 1 106.334 29.513 Q 106.406 29.715 106.439 29.963 A 3.606 3.606 0 0 1 106.47 30.45 A 6.94 6.94 0 0 1 106.246 32.161 A 9.465 9.465 0 0 1 105.7 33.705 A 7.802 7.802 0 0 1 105.235 34.594 Q 104.961 35.04 104.658 35.366 A 2.993 2.993 0 0 1 103.88 35.98 A 3.516 3.516 0 0 0 104.151 36.283 A 2.423 2.423 0 0 0 105.91 37.03 A 2.709 2.709 0 0 0 107.773 36.335 A 3.73 3.73 0 0 0 108.465 35.49 A 6.175 6.175 0 0 0 109.151 33.911 A 7.383 7.383 0 0 0 109.41 31.92 A 6.169 6.169 0 0 0 109.23 30.437 A 6.931 6.931 0 0 0 108.36 28.42 A 3.141 3.141 0 0 0 107.161 27.308 Q 106.108 26.74 104.44 26.74 A 9.579 9.579 0 0 0 101.552 27.198 A 12.563 12.563 0 0 0 99.05 28.315 A 17.218 17.218 0 0 0 97.231 29.526 A 19.787 19.787 0 0 0 94.08 32.55 Q 91.84 35.21 90.475 38.535 A 17.815 17.815 0 0 0 89.624 41.128 A 52.339 52.339 0 0 1 89.059 42.004 Q 86.827 45.383 84.63 47.355 A 22.087 22.087 0 0 1 83.437 48.358 Q 81.169 50.12 79.66 50.12 A 2.827 2.827 0 0 1 79.357 50.104 Q 78.33 49.994 77.84 49.105 A 5.011 5.011 0 0 1 77.65 48.723 A 4.101 4.101 0 0 1 77.28 47.04 Q 77.28 46.331 77.479 45.567 A 8.189 8.189 0 0 1 77.91 44.345 Q 78.54 42.91 79.31 41.51 Q 79.719 40.766 80.089 40.111 A 102.128 102.128 0 0 1 80.71 39.025 Q 81.153 38.262 81.285 37.724 A 1.757 1.757 0 0 0 81.34 37.31 A 1.037 1.037 0 0 0 81.156 36.703 Q 81.042 36.539 80.858 36.406 A 1.581 1.581 0 0 0 80.85 36.4 Q 80.36 36.05 79.695 35.84 Q 79.238 35.696 78.897 35.617 A 4.894 4.894 0 0 0 78.61 35.56 A 0.051 0.051 0 0 0 78.585 35.569 Q 78.517 35.611 78.35 35.848 A 6.817 6.817 0 0 0 78.26 35.98 Q 76.86 38.08 75.04 40.6 Q 73.22 43.12 71.225 45.465 Q 70.165 46.711 69.135 47.72 A 23.513 23.513 0 0 1 67.34 49.315 Q 65.45 50.82 63.84 50.82 Q 61.95 50.82 61.95 48.09 A 10.525 10.525 0 0 1 61.974 47.396 Q 62.033 46.49 62.246 45.482 A 19.792 19.792 0 0 1 62.79 43.47 Q 63.63 40.88 65.1 38.22 Q 66.57 35.56 68.46 33.285 A 22.148 22.148 0 0 1 70.171 31.439 A 16.583 16.583 0 0 1 72.38 29.645 Q 73.237 29.069 74.08 28.736 A 6.206 6.206 0 0 1 76.37 28.28 A 5.621 5.621 0 0 1 76.765 28.294 Q 78.343 28.405 79.03 29.435 Q 79.8 30.59 79.8 32.2 A 6.873 6.873 0 0 1 79.774 32.786 A 9.065 9.065 0 0 1 79.695 33.425 A 16.146 16.146 0 0 1 79.597 33.987 A 12.827 12.827 0 0 1 79.45 34.65 A 6.924 6.924 0 0 0 79.884 34.637 Q 80.423 34.603 80.88 34.483 A 3.487 3.487 0 0 0 81.935 34.02 Q 82.636 33.552 82.817 32.468 A 5.049 5.049 0 0 0 82.88 31.64 A 5.846 5.846 0 0 0 82.858 31.131 A 4.557 4.557 0 0 0 81.06 27.825 A 6.442 6.442 0 0 0 78.642 26.643 A 8.559 8.559 0 0 0 76.51 26.39 A 11.013 11.013 0 0 0 73.943 26.698 A 13.353 13.353 0 0 0 71.015 27.79 A 20.431 20.431 0 0 0 69.314 28.757 A 23.485 23.485 0 0 0 65.765 31.535 Q 63.28 33.88 61.32 36.715 Q 59.36 39.55 58.24 42.455 A 21.16 21.16 0 0 0 58.224 42.498 A 18.019 18.019 0 0 0 58.198 42.564 A 29.629 29.629 0 0 1 56.07 45.22 A 25.99 25.99 0 0 1 54.784 46.552 A 21.988 21.988 0 0 1 50.61 49.735 A 14.042 14.042 0 0 1 49.136 50.485 A 11.133 11.133 0 0 1 44.66 51.45 Q 43.05 51.45 41.965 50.96 A 4.971 4.971 0 0 1 41.574 50.763 A 4.051 4.051 0 0 1 40.25 49.595 Q 39.62 48.72 39.375 47.67 Q 39.13 46.62 39.13 45.57 Q 39.13 45.01 39.2 44.38 Q 39.27 43.75 39.41 43.05 A 21.335 21.335 0 0 0 40.634 42.9 A 23.578 23.578 0 0 0 45.465 41.615 Q 48.51 40.46 51.065 38.64 A 18.666 18.666 0 0 0 52.281 37.697 A 15.618 15.618 0 0 0 55.195 34.475 A 10.627 10.627 0 0 0 55.316 34.291 A 8.772 8.772 0 0 0 56.77 29.47 Q 56.77 28.094 56.385 27.212 A 2.504 2.504 0 0 0 55.405 26.04 Q 54.04 25.2 52.43 25.2 A 10.581 10.581 0 0 0 48.943 25.809 A 14.206 14.206 0 0 0 46.2 27.125 A 22.178 22.178 0 0 0 44.283 28.441 A 25.228 25.228 0 0 0 40.425 32.13 A 30.032 30.032 0 0 0 40.405 32.154 A 27.547 27.547 0 0 0 36.225 38.71 A 19.427 19.427 0 0 0 35.148 41.706 A 14.258 14.258 0 0 0 34.65 45.36 A 10.591 10.591 0 0 0 34.666 45.942 A 8.137 8.137 0 0 0 36.785 51.135 A 6.346 6.346 0 0 0 38.203 52.298 Q 39.298 52.96 40.73 53.251 Z M 192.98 53.251 A 12.355 12.355 0 0 0 195.44 53.48 A 14.242 14.242 0 0 0 197.815 53.281 Q 200.071 52.9 202.282 51.792 A 18.344 18.344 0 0 0 202.335 51.765 A 20.815 20.815 0 0 0 204.812 50.287 A 24.304 24.304 0 0 0 208.635 46.97 A 24.178 24.178 0 0 0 210.189 45.149 A 27.089 27.089 0 0 0 210.878 44.207 A 17.815 17.815 0 0 0 210.84 45.36 A 15.757 15.757 0 0 0 210.906 46.834 Q 211.225 50.225 213.08 52.08 Q 215.32 54.32 218.68 54.32 Q 222.11 54.32 225.47 52.43 A 20.379 20.379 0 0 0 228.108 50.658 A 24.32 24.32 0 0 0 231.63 47.215 A 26.073 26.073 0 0 0 234.355 43.286 A 25.523 25.523 0 0 0 234.22 45.701 A 20.268 20.268 0 0 0 234.22 45.78 A 18.083 18.083 0 0 0 234.347 47.963 A 13.949 13.949 0 0 0 234.99 50.82 A 8.165 8.165 0 0 0 235.103 51.129 Q 235.476 52.085 235.966 52.568 A 1.565 1.565 0 0 0 237.09 53.06 A 1.375 1.375 0 0 0 237.36 53.033 Q 237.961 52.913 238.535 52.256 A 5.274 5.274 0 0 0 238.98 51.66 A 14.638 14.638 0 0 0 239.411 50.952 Q 239.764 50.334 240.118 49.596 A 30.935 30.935 0 0 0 240.8 48.055 A 3438.637 3438.637 0 0 1 241.736 45.789 A 4030.416 4030.416 0 0 1 242.725 43.4 A 62.277 62.277 0 0 1 242.981 42.791 A 56.578 56.578 0 0 1 244.895 38.745 A 20.518 20.518 0 0 1 245.04 38.473 Q 246.138 36.453 247.45 35.14 A 5.726 5.726 0 0 1 247.987 34.664 A 4.167 4.167 0 0 1 250.6 33.74 Q 251.72 33.74 252.49 34.51 A 1.888 1.888 0 0 1 252.603 34.633 Q 253.071 35.193 253.206 36.207 A 6.808 6.808 0 0 1 253.26 37.1 A 11.765 11.765 0 0 1 253.156 38.638 A 14.853 14.853 0 0 1 252.735 40.67 Q 252.21 42.56 251.65 44.38 Q 251.353 45.347 251.213 46.215 A 9.187 9.187 0 0 0 251.09 47.67 Q 251.09 49.56 252.315 50.82 A 3.657 3.657 0 0 0 253.123 51.445 Q 253.743 51.801 254.545 51.957 A 7.189 7.189 0 0 0 255.92 52.08 A 9.066 9.066 0 0 0 258.269 51.772 A 10.334 10.334 0 0 0 261.17 50.47 A 16.101 16.101 0 0 0 263.44 48.707 A 20.187 20.187 0 0 0 265.79 46.095 A 27.023 27.023 0 0 0 266.555 45.035 A 29.808 29.808 0 0 0 269.36 39.9 L 268.45 39.06 Q 267.05 42.07 265.09 44.625 A 31.165 31.165 0 0 1 264.764 45.042 Q 262.965 47.308 261.135 48.72 Q 259.943 49.64 258.888 50.011 A 4.097 4.097 0 0 1 257.53 50.26 A 2.577 2.577 0 0 1 257.46 50.259 A 1.969 1.969 0 0 1 256.025 49.63 A 1.57 1.57 0 0 1 256.002 49.605 Q 255.594 49.154 255.477 48.327 A 5.206 5.206 0 0 1 255.43 47.6 A 8.572 8.572 0 0 1 255.605 45.9 A 10.831 10.831 0 0 1 256.2 43.96 Q 256.97 42.07 257.705 40.04 Q 258.44 38.01 258.44 35.84 Q 258.44 34.3 257.915 32.865 Q 257.39 31.43 256.235 30.485 A 3.651 3.651 0 0 0 255.734 30.141 Q 255.146 29.805 254.399 29.657 A 6.583 6.583 0 0 0 253.12 29.54 Q 251.23 29.54 249.55 30.485 A 10.829 10.829 0 0 0 247.964 31.581 A 13.993 13.993 0 0 0 246.365 33.145 A 22.748 22.748 0 0 0 245.082 34.753 A 28.245 28.245 0 0 0 243.53 37.135 A 40.182 40.182 0 0 0 242.716 38.598 A 47.149 47.149 0 0 0 241.045 42.105 Q 239.89 44.8 238.91 47.67 A 11.827 11.827 0 0 1 238.863 47.293 A 14.286 14.286 0 0 1 238.805 46.62 Q 238.77 46.06 238.77 45.29 Q 238.77 43.4 239.05 40.985 A 39.728 39.728 0 0 1 239.125 40.38 A 43.573 43.573 0 0 1 239.925 36.05 A 34.315 34.315 0 0 1 240.493 33.939 A 26.803 26.803 0 0 1 241.36 31.5 A 19.497 19.497 0 0 0 243.868 29.696 A 26.432 26.432 0 0 0 246.19 27.475 Q 248.57 24.92 250.6 21.84 Q 252.63 18.76 254.17 15.575 A 51.086 51.086 0 0 0 255.468 12.674 A 38.567 38.567 0 0 0 256.585 9.59 A 25.299 25.299 0 0 0 256.998 8.122 Q 257.222 7.218 257.337 6.418 A 11.169 11.169 0 0 0 257.46 4.83 A 7.899 7.899 0 0 0 257.37 3.653 A 9.577 9.577 0 0 0 256.935 1.925 A 4.003 4.003 0 0 0 256.871 1.754 Q 256.727 1.394 256.535 1.131 A 1.631 1.631 0 0 0 255.15 0.42 Q 253.971 0.42 252.464 1.815 A 13.634 13.634 0 0 0 251.51 2.8 Q 250.181 4.306 248.74 6.457 A 61.309 61.309 0 0 0 247.03 9.17 A 85.917 85.917 0 0 0 244.968 12.835 A 107.796 107.796 0 0 0 242.375 18.06 Q 240.1 22.96 238.28 28.07 A 110.545 110.545 0 0 0 237.014 31.834 A 90.726 90.726 0 0 0 235.34 37.8 A 51.412 51.412 0 0 0 234.987 39.356 A 25.863 25.863 0 0 1 234.544 40.399 A 22.149 22.149 0 0 1 231.21 45.71 A 22.069 22.069 0 0 1 229.318 47.676 A 17.222 17.222 0 0 1 225.925 50.12 Q 223.09 51.66 220.29 51.66 A 8.616 8.616 0 0 1 219.444 51.62 Q 217.125 51.391 216.23 49.84 Q 215.18 48.02 215.18 45.85 Q 215.18 43.26 216.265 40.32 Q 217.35 37.38 219.065 34.72 A 22.668 22.668 0 0 1 220.677 32.511 A 16.874 16.874 0 0 1 222.775 30.38 A 10.068 10.068 0 0 1 223.397 29.895 Q 225.066 28.7 226.66 28.7 A 3.546 3.546 0 0 1 226.708 28.7 Q 227.578 28.712 227.885 29.155 A 1.502 1.502 0 0 1 228.064 29.513 Q 228.136 29.715 228.169 29.963 A 3.606 3.606 0 0 1 228.2 30.45 A 6.94 6.94 0 0 1 227.976 32.161 A 9.465 9.465 0 0 1 227.43 33.705 A 7.802 7.802 0 0 1 226.965 34.594 Q 226.691 35.04 226.388 35.366 A 2.993 2.993 0 0 1 225.61 35.98 A 3.516 3.516 0 0 0 225.881 36.283 A 2.423 2.423 0 0 0 227.64 37.03 A 2.709 2.709 0 0 0 229.503 36.335 A 3.73 3.73 0 0 0 230.195 35.49 A 6.175 6.175 0 0 0 230.881 33.911 A 7.383 7.383 0 0 0 231.14 31.92 A 6.169 6.169 0 0 0 230.96 30.437 A 6.931 6.931 0 0 0 230.09 28.42 A 3.141 3.141 0 0 0 228.891 27.308 Q 227.838 26.74 226.17 26.74 A 9.579 9.579 0 0 0 223.282 27.198 A 12.563 12.563 0 0 0 220.78 28.315 A 17.218 17.218 0 0 0 218.961 29.526 A 19.787 19.787 0 0 0 215.81 32.55 Q 213.57 35.21 212.205 38.535 A 17.815 17.815 0 0 0 211.32 41.266 A 29.629 29.629 0 0 1 208.32 45.22 A 25.99 25.99 0 0 1 207.034 46.552 A 21.988 21.988 0 0 1 202.86 49.735 A 14.042 14.042 0 0 1 201.386 50.485 A 11.133 11.133 0 0 1 196.91 51.45 Q 195.3 51.45 194.215 50.96 A 4.971 4.971 0 0 1 193.824 50.763 A 4.051 4.051 0 0 1 192.5 49.595 Q 191.87 48.72 191.625 47.67 Q 191.38 46.62 191.38 45.57 Q 191.38 45.01 191.45 44.38 Q 191.52 43.75 191.66 43.05 A 21.335 21.335 0 0 0 192.884 42.9 A 23.578 23.578 0 0 0 197.715 41.615 Q 200.76 40.46 203.315 38.64 A 18.666 18.666 0 0 0 204.531 37.697 A 15.618 15.618 0 0 0 207.445 34.475 A 10.627 10.627 0 0 0 207.566 34.291 A 8.772 8.772 0 0 0 209.02 29.47 Q 209.02 28.094 208.635 27.212 A 2.504 2.504 0 0 0 207.655 26.04 Q 206.29 25.2 204.68 25.2 A 10.581 10.581 0 0 0 201.193 25.809 A 14.206 14.206 0 0 0 198.45 27.125 A 22.178 22.178 0 0 0 196.533 28.441 A 25.228 25.228 0 0 0 192.675 32.13 A 30.032 30.032 0 0 0 192.655 32.154 A 27.547 27.547 0 0 0 188.475 38.71 A 19.427 19.427 0 0 0 187.398 41.706 A 14.258 14.258 0 0 0 186.9 45.36 A 10.591 10.591 0 0 0 186.916 45.942 A 8.137 8.137 0 0 0 189.035 51.135 A 6.346 6.346 0 0 0 190.453 52.298 Q 191.548 52.96 192.98 53.251 Z M 162.33 55.09 A 2.892 2.892 0 0 0 162.622 55.387 Q 163.874 56.49 166.67 56.49 A 3.436 3.436 0 0 1 166.622 56.164 A 4.389 4.389 0 0 1 166.6 55.72 L 166.6 54.95 A 23.871 23.871 0 0 1 166.616 54.079 A 26.609 26.609 0 0 1 167.055 50.19 Q 167.51 47.74 168.315 44.8 Q 168.743 43.238 169.22 41.459 A 924.337 924.337 0 0 0 170.1 38.15 A 394.393 394.393 0 0 1 173.031 27.983 A 288.842 288.842 0 0 1 175.945 18.9 Q 178.124 12.495 179.929 7.744 A 183.384 183.384 0 0 1 181.09 4.76 L 182.77 4.76 Q 183.61 4.76 184.45 4.795 A 42.709 42.709 0 0 0 184.866 4.81 A 37.472 37.472 0 0 0 186.06 4.83 Q 189.49 4.83 192.57 4.27 Q 195.65 3.71 198.03 1.54 Q 194.67 1.47 191.31 1.12 A 2044.345 2044.345 0 0 0 187.836 0.761 A 2472.213 2472.213 0 0 0 184.135 0.385 Q 182.108 0.181 179.795 0.085 A 104.152 104.152 0 0 0 175.49 0 A 81.523 81.523 0 0 0 174.853 0.003 Q 172.64 0.02 170.655 0.158 A 49.057 49.057 0 0 0 166.88 0.56 A 25.743 25.743 0 0 0 165.103 0.885 Q 163.873 1.156 162.845 1.528 A 11.662 11.662 0 0 0 160.86 2.45 A 6.367 6.367 0 0 0 160.27 2.845 A 4.494 4.494 0 0 0 158.41 6.16 A 77.298 77.298 0 0 1 161.368 5.679 A 58.571 58.571 0 0 1 164.08 5.355 A 82.073 82.073 0 0 1 164.248 5.339 Q 166.775 5.106 169.925 4.97 Q 173.18 4.83 178.01 4.76 A 152.749 152.749 0 0 0 176.094 8.978 A 200.306 200.306 0 0 0 174.125 13.65 Q 172.13 18.55 170.205 23.59 A 712.441 712.441 0 0 0 169.258 26.084 A 620.502 620.502 0 0 0 166.6 33.25 A 791.96 791.96 0 0 0 165.598 36.021 Q 164.548 38.942 163.73 41.3 A 112.431 112.431 0 0 0 163.504 41.951 A 123.612 123.612 0 0 0 161.98 46.69 A 26.016 26.016 0 0 0 161.634 47.955 Q 161.14 49.964 161.14 51.52 A 6.813 6.813 0 0 0 161.245 52.741 A 4.912 4.912 0 0 0 162.33 55.09 Z M 13.09 29.68 L 12.39 29.68 Q 10.29 36.89 8.365 43.89 A 1344.117 1344.117 0 0 1 6.547 50.442 Q 5.648 53.646 4.83 56.49 Q 3.08 56.49 1.54 55.51 A 4.022 4.022 0 0 1 0.728 54.843 A 2.656 2.656 0 0 1 0 52.99 A 4.268 4.268 0 0 1 0.049 52.368 Q 0.095 52.056 0.185 51.705 A 9.472 9.472 0 0 1 0.35 51.135 Q 0.7 50.05 0.98 49.14 Q 3.22 42.28 5.18 36.33 Q 7.14 30.38 9.1 24.78 Q 11.06 19.18 13.265 13.58 A 262.814 262.814 0 0 1 16.706 5.277 A 306.527 306.527 0 0 1 18.2 1.89 A 22.951 22.951 0 0 0 15.689 2.494 A 17.62 17.62 0 0 0 13.475 3.325 A 59.051 59.051 0 0 0 12.151 3.95 Q 10.977 4.523 10.15 5.005 A 16.135 16.135 0 0 1 9.707 5.255 Q 9.011 5.632 8.65 5.716 A 0.809 0.809 0 0 1 8.47 5.74 A 0.726 0.726 0 0 1 8.293 5.715 Q 8.122 5.672 7.891 5.552 A 4.198 4.198 0 0 1 7.665 5.425 Q 7.14 5.11 6.72 4.655 A 2.544 2.544 0 0 1 6.527 4.421 Q 6.34 4.163 6.307 3.943 A 0.625 0.625 0 0 1 6.3 3.85 A 72.081 72.081 0 0 1 7.759 3.253 Q 8.405 2.996 9.117 2.725 A 127.55 127.55 0 0 1 10.605 2.17 A 39.57 39.57 0 0 1 14.376 1.007 A 46.354 46.354 0 0 1 15.96 0.63 Q 18.83 0 21.77 0 A 24.256 24.256 0 0 1 27.439 0.69 A 27.262 27.262 0 0 1 28.035 0.84 Q 31.22 1.68 33.88 3.395 A 14.105 14.105 0 0 1 37.677 6.937 A 13.482 13.482 0 0 1 38.15 7.63 Q 39.76 10.15 39.76 13.51 A 13.799 13.799 0 0 1 39.43 16.6 A 10.527 10.527 0 0 1 38.15 19.775 Q 36.54 22.4 33.88 24.185 Q 31.22 25.97 28.14 27.055 Q 25.06 28.14 22.015 28.735 Q 18.97 29.33 16.59 29.505 A 112.676 112.676 0 0 1 15.479 29.582 Q 13.93 29.68 13.09 29.68 Z M 12.67 28.56 A 38.332 38.332 0 0 0 19.981 27.428 A 42.36 42.36 0 0 0 20.475 27.3 A 27.755 27.755 0 0 0 26.992 24.68 A 25.781 25.781 0 0 0 27.72 24.255 A 17.4 17.4 0 0 0 32.019 20.626 A 16.203 16.203 0 0 0 33.04 19.285 A 11.687 11.687 0 0 0 35.01 13.663 A 14.727 14.727 0 0 0 35.07 12.32 A 13.096 13.096 0 0 0 34.819 9.682 Q 34.479 8.029 33.679 6.737 A 7.855 7.855 0 0 0 33.285 6.16 Q 31.5 3.78 28.595 2.625 Q 25.69 1.47 22.4 1.47 A 76.523 76.523 0 0 0 20.161 6.33 Q 18.738 9.704 17.36 13.72 A 326.339 326.339 0 0 0 12.951 27.6 A 357.159 357.159 0 0 0 12.67 28.56 Z M 242.27 28.77 A 19.807 19.807 0 0 0 244.323 26.897 A 26.448 26.448 0 0 0 246.085 24.85 Q 247.94 22.47 249.55 19.775 Q 251.16 17.08 252.42 14.49 A 48.875 48.875 0 0 0 253.415 12.318 Q 253.986 10.981 254.38 9.8 Q 254.927 8.16 255.047 7.161 A 4.324 4.324 0 0 0 255.08 6.65 Q 255.08 6.333 255.023 6.217 A 0.197 0.197 0 0 0 255.01 6.195 Q 254.94 6.09 254.8 6.09 A 0.543 0.543 0 0 0 254.54 6.181 Q 254.024 6.484 252.973 7.802 A 28.67 28.67 0 0 0 252.805 8.015 Q 251.794 9.308 250.577 11.186 A 83.28 83.28 0 0 0 249.34 13.16 Q 247.38 16.38 245.49 20.44 Q 243.6 24.5 242.27 28.77 Z M 39.76 41.72 A 23.817 23.817 0 0 0 41.475 41.069 Q 42.364 40.694 43.341 40.212 A 44.328 44.328 0 0 0 44.03 39.865 Q 46.41 38.64 48.615 36.96 A 18.122 18.122 0 0 0 51.151 34.634 A 15.474 15.474 0 0 0 52.255 33.25 A 8.035 8.035 0 0 0 53.343 31.134 A 6.82 6.82 0 0 0 53.69 28.98 A 3.414 3.414 0 0 0 53.663 28.533 Q 53.633 28.306 53.57 28.12 A 1.411 1.411 0 0 0 53.41 27.79 A 0.778 0.778 0 0 0 53.087 27.522 Q 52.768 27.37 52.22 27.37 A 5.035 5.035 0 0 0 50.543 27.674 Q 49.625 27.997 48.65 28.665 A 16.17 16.17 0 0 0 46.568 30.377 A 21.166 21.166 0 0 0 45.01 32.06 A 29.789 29.789 0 0 0 41.866 36.67 A 34.714 34.714 0 0 0 41.86 36.68 A 24.229 24.229 0 0 0 40.266 40.145 A 21.03 21.03 0 0 0 39.76 41.72 Z M 116.2 41.72 A 23.817 23.817 0 0 0 117.915 41.069 Q 118.804 40.694 119.781 40.212 A 44.328 44.328 0 0 0 120.47 39.865 Q 122.85 38.64 125.055 36.96 A 18.122 18.122 0 0 0 127.591 34.634 A 15.474 15.474 0 0 0 128.695 33.25 A 8.035 8.035 0 0 0 129.783 31.134 A 6.82 6.82 0 0 0 130.13 28.98 A 3.414 3.414 0 0 0 130.103 28.533 Q 130.073 28.306 130.01 28.12 A 1.411 1.411 0 0 0 129.85 27.79 A 0.778 0.778 0 0 0 129.527 27.522 Q 129.208 27.37 128.66 27.37 A 5.035 5.035 0 0 0 126.983 27.674 Q 126.065 27.997 125.09 28.665 A 16.17 16.17 0 0 0 123.008 30.377 A 21.166 21.166 0 0 0 121.45 32.06 A 29.789 29.789 0 0 0 118.306 36.67 A 34.714 34.714 0 0 0 118.3 36.68 A 24.229 24.229 0 0 0 116.706 40.145 A 21.03 21.03 0 0 0 116.2 41.72 Z M 192.01 41.72 A 23.817 23.817 0 0 0 193.725 41.069 Q 194.614 40.694 195.591 40.212 A 44.328 44.328 0 0 0 196.28 39.865 Q 198.66 38.64 200.865 36.96 A 18.122 18.122 0 0 0 203.401 34.634 A 15.474 15.474 0 0 0 204.505 33.25 A 8.035 8.035 0 0 0 205.593 31.134 A 6.82 6.82 0 0 0 205.94 28.98 A 3.414 3.414 0 0 0 205.913 28.533 Q 205.883 28.306 205.82 28.12 A 1.411 1.411 0 0 0 205.66 27.79 A 0.778 0.778 0 0 0 205.337 27.522 Q 205.018 27.37 204.47 27.37 A 5.035 5.035 0 0 0 202.793 27.674 Q 201.875 27.997 200.9 28.665 A 16.17 16.17 0 0 0 198.818 30.377 A 21.166 21.166 0 0 0 197.26 32.06 A 29.789 29.789 0 0 0 194.116 36.67 A 34.714 34.714 0 0 0 194.11 36.68 A 24.229 24.229 0 0 0 192.516 40.145 A 21.03 21.03 0 0 0 192.01 41.72 Z" vector-effect="non-scaling-stroke"/></g></svg>